<svg id="SvgjsSvg1025" width="288" height="288" xmlns="http://www.w3.org/2000/svg" version="1.1" xmlns:xlink="http://www.w3.org/1999/xlink" xmlns:svgjs="http://svgjs.com/svgjs"><defs id="SvgjsDefs1026"></defs><g id="SvgjsG1027"><svg xmlns="http://www.w3.org/2000/svg" enable-background="new 0 0 297 297" viewBox="0 0 297 297" width="288" height="288"><path d="M204.243 212.015c0 7.599-1.106 16.865-2.983 23.334 14.62 9.181 31.268 10.374 43.615 9.487 8.396-.603 15.057-7.324 15.723-15.715.492-6.204.374-13.488-1.196-21.093-.913.65-1.828 1.28-2.743 1.871-8.639 5.585-18.368 8.254-27.989 8.254C220.145 218.153 211.772 216.038 204.243 212.015zM92.753 212.042c-7.528 4.01-15.91 6.111-24.426 6.111-9.624 0-19.349-2.668-27.989-8.254-.89-.576-1.78-1.188-2.668-1.818-1.539 7.54-1.667 14.773-1.199 20.945.638 8.421 7.336 15.176 15.761 15.756 12.313.848 28.857-.354 43.354-9.352C93.799 228.97 92.753 219.71 92.753 212.042zM51.039 193.683c8.67 5.605 19.103 6.447 28.167 3.212-19.112-5.847-34.683-21.313-39.507-41.956-2.141-9.163-2.868-19.717-2.632-30.837-9.269-1.833-18.502-3.2-26.894-4.215-7.507-.908-12.753 7.237-8.844 13.71C14.298 155.073 32.991 182.015 51.039 193.683zM286.826 119.895c-8.393 1.016-17.627 2.384-26.896 4.217.235 11.116-.492 21.667-2.632 30.826-4.824 20.642-20.396 36.108-39.509 41.956 9.065 3.235 19.499 2.393 28.169-3.212 18.067-11.682 36.753-38.61 49.714-60.078C299.58 127.131 294.333 118.987 286.826 119.895zM86.508 178.814c-3.478-8.04-5.409-16.886-5.409-26.171 0-23.679 9.109-52.99 20.172-79.865-6.487-8.756-13.114-16.931-19.097-23.967-4.38-5.151-12.752-3.18-14.378 3.383-7.197 29.049-15.27 71.688-9.033 98.379C62.09 164.811 73.137 175.327 86.508 178.814zM141.29 33.639c-16.64 31.809-40.624 83.773-40.624 119.004 0 26.106 21.457 47.345 47.832 47.345s47.832-21.239 47.832-47.345c0-36.557-23.742-87.722-40.355-119.048C152.846 27.696 144.386 27.722 141.29 33.639zM210.487 178.817c13.374-3.486 24.419-14.004 27.747-28.244 6.237-26.691-1.836-69.33-9.033-98.379-1.626-6.562-9.998-8.535-14.377-3.384-5.9 6.939-12.427 14.985-18.828 23.604 10.943 26.603 19.902 55.829 19.902 80.23C215.897 161.93 213.966 170.776 210.487 178.817zM148.498 219.357c-13.145 0-25.413-3.758-35.793-10.226-.245 1.674-.384 3.382-.384 5.122 0 23.653 13.48 40.001 24.857 49.585 6.385 5.379 15.759 5.276 22.087-.168 11.534-9.923 25.411-26.603 25.411-49.417 0-1.74-.139-3.448-.384-5.122C173.912 215.599 161.643 219.357 148.498 219.357z" fill="#6d6868" class="color000 svgShape"></path></svg></g></svg>